<?xml version="1.0" encoding="UTF-8"?>
<!--Generator: Apple Native CoreSVG 175.5-->
<!DOCTYPE svg
PUBLIC "-//W3C//DTD SVG 1.1//EN"
       "http://www.w3.org/Graphics/SVG/1.1/DTD/svg11.dtd">
<svg version="1.1" xmlns="http://www.w3.org/2000/svg" xmlns:xlink="http://www.w3.org/1999/xlink" width="17.9785" height="17.998">
 <g>
  <rect height="17.998" opacity="0" width="17.9785" x="0" y="0"/>
  <path d="M3.06641 17.998L14.9121 17.998C16.9629 17.998 17.9785 16.9824 17.9785 14.9707L17.9785 3.04688C17.9785 1.03516 16.9629 0.0195312 14.9121 0.0195312L3.06641 0.0195312C1.02539 0.0195312 0 1.02539 0 3.04688L0 14.9707C0 16.9922 1.02539 17.998 3.06641 17.998ZM5.05859 9.85352C4.49219 9.85352 4.0918 9.55078 4.0918 9.01367C4.0918 8.4668 4.46289 8.1543 5.05859 8.1543L12.9492 8.1543C13.5352 8.1543 13.9062 8.4668 13.9062 9.01367C13.9062 9.55078 13.5156 9.85352 12.9492 9.85352Z" fill="#000000" fill-opacity="0.85"/>
 </g>
</svg>
