<?xml version="1.0" encoding="UTF-8"?>
<!--Generator: Apple Native CoreSVG 175.5-->
<!DOCTYPE svg
PUBLIC "-//W3C//DTD SVG 1.1//EN"
       "http://www.w3.org/Graphics/SVG/1.1/DTD/svg11.dtd">
<svg version="1.1" xmlns="http://www.w3.org/2000/svg" xmlns:xlink="http://www.w3.org/1999/xlink" width="22.8613" height="20.9473">
 <g>
  <rect height="20.9473" opacity="0" width="22.8613" x="0" y="0"/>
  <path d="M3.02734 20.9473L13.3984 20.9473C15.4199 20.9473 16.4258 19.9219 16.4258 17.8809L16.4258 11.4355L9.20898 11.4355C8.69141 11.4355 8.25195 10.9961 8.25195 10.4688C8.25195 9.94141 8.69141 9.49219 9.20898 9.49219L16.4258 9.49219L16.4258 3.06641C16.4258 1.03516 15.4199 0.00976562 13.3984 0.00976562L3.02734 0.00976562C1.00586 0.00976562 0 1.03516 0 3.06641L0 17.8809C0 19.9219 1.00586 20.9473 3.02734 20.9473ZM15.6641 10.4688C15.6641 10.8887 16.0059 11.2402 16.416 11.2402L19.2578 11.2402L20.7227 11.1816L20.0293 11.8457L18.457 13.3203C18.3008 13.457 18.2227 13.6621 18.2227 13.8477C18.2227 14.2578 18.5059 14.5605 18.9062 14.5605C19.1113 14.5605 19.2676 14.4824 19.4238 14.3359L22.6074 11.0352C22.8027 10.8398 22.8613 10.6641 22.8613 10.4688C22.8613 10.2637 22.8027 10.0977 22.6074 9.90234L19.4238 6.60156C19.2676 6.45508 19.1113 6.36719 18.9062 6.36719C18.5059 6.36719 18.2227 6.66016 18.2227 7.07031C18.2227 7.26562 18.3008 7.4707 18.457 7.60742L20.0293 9.0918L20.7227 9.75586L19.2578 9.6875L16.416 9.6875C16.0059 9.6875 15.6641 10.0488 15.6641 10.4688Z" fill="#ffffff" fill-opacity="0.85"/>
 </g>
</svg>
